<?xml version="1.0" encoding="UTF-8" standalone="no"?>
<!DOCTYPE svg PUBLIC "-//W3C//DTD SVG 1.1//EN"
 "http://www.w3.org/Graphics/SVG/1.1/DTD/svg11.dtd">
<!-- Generated by graphviz version 2.43.0 (0)
 -->
<!-- Title: %3 Pages: 1 -->
<svg width="363pt" height="816pt"
 viewBox="0.00 0.00 362.68 816.00" xmlns="http://www.w3.org/2000/svg" xmlns:xlink="http://www.w3.org/1999/xlink">
<g id="graph0" class="graph" transform="scale(1 1) rotate(0) translate(4 812)">
<title>%3</title>
<polygon fill="white" stroke="transparent" points="-4,4 -4,-812 358.68,-812 358.68,4 -4,4"/>
<!-- A -->
<g id="node1" class="node">
<title>A</title>
<ellipse fill="none" stroke="black" cx="266.94" cy="-790" rx="27.1" ry="18"/>
<text text-anchor="middle" x="266.94" y="-786.3" font-family="Times,serif" font-size="14.00">Start</text>
</g>
<!-- L -->
<g id="node2" class="node">
<title>L</title>
<ellipse fill="none" stroke="black" cx="266.94" cy="-717" rx="87.99" ry="18"/>
<text text-anchor="middle" x="266.94" y="-713.3" font-family="Times,serif" font-size="14.00">Load Next JSON File</text>
</g>
<!-- A&#45;&gt;L -->
<g id="edge1" class="edge">
<title>A&#45;&gt;L</title>
<path fill="none" stroke="black" d="M266.94,-771.81C266.94,-763.79 266.94,-754.05 266.94,-745.07"/>
<polygon fill="black" stroke="black" points="270.44,-745.03 266.94,-735.03 263.44,-745.03 270.44,-745.03"/>
</g>
<!-- B -->
<g id="node3" class="node">
<title>B</title>
<ellipse fill="none" stroke="black" cx="124.94" cy="-644" rx="113.98" ry="18"/>
<text text-anchor="middle" x="124.94" y="-640.3" font-family="Times,serif" font-size="14.00">Is Sport Type Trail Running?</text>
</g>
<!-- L&#45;&gt;B -->
<g id="edge2" class="edge">
<title>L&#45;&gt;B</title>
<path fill="none" stroke="black" d="M235.07,-700.07C214.9,-689.98 188.59,-676.82 166.75,-665.9"/>
<polygon fill="black" stroke="black" points="168.2,-662.71 157.69,-661.37 165.07,-668.98 168.2,-662.71"/>
</g>
<!-- C -->
<g id="node4" class="node">
<title>C</title>
<ellipse fill="none" stroke="black" cx="92.94" cy="-557" rx="92.88" ry="18"/>
<text text-anchor="middle" x="92.94" y="-553.3" font-family="Times,serif" font-size="14.00">Check Duration (4–6h)</text>
</g>
<!-- B&#45;&gt;C -->
<g id="edge10" class="edge">
<title>B&#45;&gt;C</title>
<path fill="none" stroke="black" d="M118.47,-625.8C114.04,-614.05 108.09,-598.24 103.05,-584.84"/>
<polygon fill="black" stroke="black" points="106.21,-583.3 99.41,-575.18 99.66,-585.77 106.21,-583.3"/>
<text text-anchor="middle" x="121.44" y="-596.8" font-family="Times,serif" font-size="14.00">Yes</text>
</g>
<!-- Y -->
<g id="node11" class="node">
<title>Y</title>
<ellipse fill="none" stroke="black" cx="221.94" cy="-470" rx="42.79" ry="18"/>
<text text-anchor="middle" x="221.94" y="-466.3" font-family="Times,serif" font-size="14.00">Skip File</text>
</g>
<!-- B&#45;&gt;Y -->
<g id="edge11" class="edge">
<title>B&#45;&gt;Y</title>
<path fill="none" stroke="black" d="M148.02,-626.13C163.48,-613.65 183.1,-595.36 194.94,-575 208.81,-551.17 215.66,-520.18 218.98,-498.25"/>
<polygon fill="black" stroke="black" points="222.46,-498.67 220.34,-488.29 215.52,-497.72 222.46,-498.67"/>
<text text-anchor="middle" x="218.44" y="-553.3" font-family="Times,serif" font-size="14.00">No</text>
</g>
<!-- D -->
<g id="node5" class="node">
<title>D</title>
<ellipse fill="none" stroke="black" cx="94.94" cy="-470" rx="65.79" ry="18"/>
<text text-anchor="middle" x="94.94" y="-466.3" font-family="Times,serif" font-size="14.00">Extract Metrics</text>
</g>
<!-- C&#45;&gt;D -->
<g id="edge3" class="edge">
<title>C&#45;&gt;D</title>
<path fill="none" stroke="black" d="M93.35,-538.8C93.62,-527.16 93.99,-511.55 94.3,-498.24"/>
<polygon fill="black" stroke="black" points="97.8,-498.26 94.54,-488.18 90.8,-498.09 97.8,-498.26"/>
</g>
<!-- C&#45;&gt;Y -->
<g id="edge12" class="edge">
<title>C&#45;&gt;Y</title>
<path fill="none" stroke="black" d="M117.81,-539.61C138.76,-525.81 168.8,-506.02 191.23,-491.23"/>
<polygon fill="black" stroke="black" points="193.3,-494.06 199.73,-485.64 189.45,-488.22 193.3,-494.06"/>
<text text-anchor="middle" x="174.44" y="-509.8" font-family="Times,serif" font-size="14.00">No</text>
</g>
<!-- E -->
<g id="node6" class="node">
<title>E</title>
<ellipse fill="none" stroke="black" cx="100.94" cy="-397" rx="83.69" ry="18"/>
<text text-anchor="middle" x="100.94" y="-393.3" font-family="Times,serif" font-size="14.00">Initialize DataFrame</text>
</g>
<!-- D&#45;&gt;E -->
<g id="edge4" class="edge">
<title>D&#45;&gt;E</title>
<path fill="none" stroke="black" d="M96.39,-451.81C97.07,-443.79 97.9,-434.05 98.65,-425.07"/>
<polygon fill="black" stroke="black" points="102.15,-425.29 99.5,-415.03 95.17,-424.7 102.15,-425.29"/>
</g>
<!-- G -->
<g id="node7" class="node">
<title>G</title>
<ellipse fill="none" stroke="black" cx="122.94" cy="-324" rx="82.59" ry="18"/>
<text text-anchor="middle" x="122.94" y="-320.3" font-family="Times,serif" font-size="14.00">Process each Metric</text>
</g>
<!-- E&#45;&gt;G -->
<g id="edge5" class="edge">
<title>E&#45;&gt;G</title>
<path fill="none" stroke="black" d="M106.27,-378.81C108.78,-370.7 111.84,-360.84 114.64,-351.78"/>
<polygon fill="black" stroke="black" points="118.05,-352.62 117.67,-342.03 111.36,-350.54 118.05,-352.62"/>
</g>
<!-- H -->
<g id="node8" class="node">
<title>H</title>
<ellipse fill="none" stroke="black" cx="153.94" cy="-251" rx="122.38" ry="18"/>
<text text-anchor="middle" x="153.94" y="-247.3" font-family="Times,serif" font-size="14.00">Append columns to DataFrame</text>
</g>
<!-- G&#45;&gt;H -->
<g id="edge6" class="edge">
<title>G&#45;&gt;H</title>
<path fill="none" stroke="black" d="M130.45,-305.81C134.03,-297.62 138.39,-287.62 142.38,-278.48"/>
<polygon fill="black" stroke="black" points="145.71,-279.59 146.51,-269.03 139.3,-276.79 145.71,-279.59"/>
</g>
<!-- I -->
<g id="node9" class="node">
<title>I</title>
<ellipse fill="none" stroke="black" cx="202.94" cy="-178" rx="57.39" ry="18"/>
<text text-anchor="middle" x="202.94" y="-174.3" font-family="Times,serif" font-size="14.00">Save as CSV</text>
</g>
<!-- H&#45;&gt;I -->
<g id="edge7" class="edge">
<title>H&#45;&gt;I</title>
<path fill="none" stroke="black" d="M165.8,-232.81C171.7,-224.27 178.95,-213.77 185.47,-204.32"/>
<polygon fill="black" stroke="black" points="188.39,-206.25 191.19,-196.03 182.63,-202.27 188.39,-206.25"/>
</g>
<!-- J -->
<g id="node10" class="node">
<title>J</title>
<ellipse fill="none" stroke="black" cx="253.94" cy="-105" rx="66.89" ry="18"/>
<text text-anchor="middle" x="253.94" y="-101.3" font-family="Times,serif" font-size="14.00">Has more files?</text>
</g>
<!-- I&#45;&gt;J -->
<g id="edge8" class="edge">
<title>I&#45;&gt;J</title>
<path fill="none" stroke="black" d="M215.03,-160.17C221.16,-151.63 228.74,-141.08 235.58,-131.56"/>
<polygon fill="black" stroke="black" points="238.6,-133.36 241.59,-123.2 232.91,-129.28 238.6,-133.36"/>
</g>
<!-- J&#45;&gt;L -->
<g id="edge13" class="edge">
<title>J&#45;&gt;L</title>
<path fill="none" stroke="black" d="M274.69,-122.33C288.81,-135.41 304.94,-155.15 304.94,-177 304.94,-645 304.94,-645 304.94,-645 304.94,-661.58 296.78,-678.04 288.03,-690.93"/>
<polygon fill="black" stroke="black" points="285.03,-689.1 281.96,-699.25 290.68,-693.23 285.03,-689.1"/>
<text text-anchor="middle" x="315.44" y="-393.3" font-family="Times,serif" font-size="14.00">Yes</text>
</g>
<!-- Z -->
<g id="node12" class="node">
<title>Z</title>
<ellipse fill="none" stroke="black" cx="253.94" cy="-18" rx="27" ry="18"/>
<text text-anchor="middle" x="253.94" y="-14.3" font-family="Times,serif" font-size="14.00">End</text>
</g>
<!-- J&#45;&gt;Z -->
<g id="edge14" class="edge">
<title>J&#45;&gt;Z</title>
<path fill="none" stroke="black" d="M253.94,-86.8C253.94,-75.16 253.94,-59.55 253.94,-46.24"/>
<polygon fill="black" stroke="black" points="257.44,-46.18 253.94,-36.18 250.44,-46.18 257.44,-46.18"/>
<text text-anchor="middle" x="262.44" y="-57.8" font-family="Times,serif" font-size="14.00">No</text>
</g>
<!-- Y&#45;&gt;L -->
<g id="edge9" class="edge">
<title>Y&#45;&gt;L</title>
<path fill="none" stroke="black" d="M226.62,-488.02C228.1,-493.72 229.68,-500.11 230.94,-506 244.87,-571.11 257.01,-648.48 262.99,-688.68"/>
<polygon fill="black" stroke="black" points="259.55,-689.38 264.48,-698.76 266.48,-688.36 259.55,-689.38"/>
</g>
</g>
</svg>